HIERARCHY
ROOT Hips
{
  OFFSET -8.84179 20.0128 0.897337
  CHANNELS 6 Xposition Yposition Zposition Zrotation Xrotation Yrotation
  JOINT Bip01_Pelvis
  {
    OFFSET 0 0 0
    CHANNELS 6 Xposition Yposition Zposition Zrotation Xrotation Yrotation
    JOINT BN_Tail_01
    {
      OFFSET -1.24087 -0.718302 0
      CHANNELS 6 Xposition Yposition Zposition Zrotation Xrotation Yrotation
      JOINT BN_Tail_02
      {
        OFFSET 6.82381 0 0
        CHANNELS 6 Xposition Yposition Zposition Zrotation Xrotation Yrotation
        JOINT BN_Tail_03
        {
          OFFSET 8.76082 0 0
          CHANNELS 6 Xposition Yposition Zposition Zrotation Xrotation Yrotation
          JOINT BN_Tail_04
          {
            OFFSET 7.66999 0 0
            CHANNELS 6 Xposition Yposition Zposition Zrotation Xrotation Yrotation
            End Site
            {
              OFFSET 0 0 0
            }
          }
        }
      }
    }
    JOINT Bip01_Spine
    {
      OFFSET 1.33812 0.096014 0.0297562
      CHANNELS 6 Xposition Yposition Zposition Zrotation Xrotation Yrotation
      JOINT Bip01_R_Thigh
      {
        OFFSET -1.30135 0.103306 -2.49297
        CHANNELS 6 Xposition Yposition Zposition Zrotation Xrotation Yrotation
        JOINT Bip01_R_Calf
        {
          OFFSET 8.39601 0 0
          CHANNELS 6 Xposition Yposition Zposition Zrotation Xrotation Yrotation
          JOINT Bip01_R_HorseLink
          {
            OFFSET 9.35807 0 0
            CHANNELS 6 Xposition Yposition Zposition Zrotation Xrotation Yrotation
            JOINT Bip01_R_Foot
            {
              OFFSET 4.27819 0 0
              CHANNELS 6 Xposition Yposition Zposition Zrotation Xrotation Yrotation
              JOINT Bip01_R_Toe0
              {
                OFFSET 1.32445 2.68719 0
                CHANNELS 6 Xposition Yposition Zposition Zrotation Xrotation Yrotation
                JOINT Bip01_R_Toe0Nub
                {
                  OFFSET 0.282271 0 0
                  CHANNELS 6 Xposition Yposition Zposition Zrotation Xrotation Yrotation
                  End Site
                  {
                    OFFSET 0 0 0
                  }
                }
              }
            }
          }
        }
      }
      JOINT Bip01_L_Thigh
      {
        OFFSET -1.37978 -0.0398788 2.39225
        CHANNELS 6 Xposition Yposition Zposition Zrotation Xrotation Yrotation
        JOINT Bip01_L_Calf
        {
          OFFSET 8.39601 0 0
          CHANNELS 6 Xposition Yposition Zposition Zrotation Xrotation Yrotation
          JOINT Bip01_L_HorseLink
          {
            OFFSET 9.35808 0 0
            CHANNELS 6 Xposition Yposition Zposition Zrotation Xrotation Yrotation
            JOINT Bip01_L_Foot
            {
              OFFSET 4.27819 0 0
              CHANNELS 6 Xposition Yposition Zposition Zrotation Xrotation Yrotation
              JOINT Bip01_L_Toe0
              {
                OFFSET 1.32445 2.68719 0
                CHANNELS 6 Xposition Yposition Zposition Zrotation Xrotation Yrotation
                JOINT Bip01_L_Toe0Nub
                {
                  OFFSET 0.282267 0 0
                  CHANNELS 6 Xposition Yposition Zposition Zrotation Xrotation Yrotation
                  End Site
                  {
                    OFFSET 0 0 0
                  }
                }
              }
            }
          }
        }
      }
      JOINT Bip01_Spine1
      {
        OFFSET 4.77812 -0.00598526 -2.03848e-005
        CHANNELS 6 Xposition Yposition Zposition Zrotation Xrotation Yrotation
        JOINT Bip01_Spine2
        {
          OFFSET 7.52904 -0.00557518 -8.38637e-005
          CHANNELS 6 Xposition Yposition Zposition Zrotation Xrotation Yrotation
          JOINT Bip01_Neck
          {
            OFFSET 8.17986 0.436998 0.000127075
            CHANNELS 6 Xposition Yposition Zposition Zrotation Xrotation Yrotation
            JOINT Bip01_R_Clavicle
            {
              OFFSET -2.1244 -3.91239 -2.44847
              CHANNELS 6 Xposition Yposition Zposition Zrotation Xrotation Yrotation
              JOINT Bip01_R_UpperArm
              {
                OFFSET 6.62478 0 0
                CHANNELS 6 Xposition Yposition Zposition Zrotation Xrotation Yrotation
                JOINT Bip01_R_Forearm
                {
                  OFFSET 7.46098 0 0
                  CHANNELS 6 Xposition Yposition Zposition Zrotation Xrotation Yrotation
                  JOINT Bip01_R_Hand
                  {
                    OFFSET 7.80543 0 0
                    CHANNELS 6 Xposition Yposition Zposition Zrotation Xrotation Yrotation
                    JOINT Bip01_R_Finger0
                    {
                      OFFSET 2.2294 0.674378 0.135623
                      CHANNELS 6 Xposition Yposition Zposition Zrotation Xrotation Yrotation
                      JOINT Bip01_R_Finger0Nub
                      {
                        OFFSET 3.57154 0 0
                        CHANNELS 6 Xposition Yposition Zposition Zrotation Xrotation Yrotation
                        End Site
                        {
                          OFFSET 0 0 0
                        }
                      }
                    }
                  }
                }
              }
            }
            JOINT Bip01_L_Clavicle
            {
              OFFSET -2.28998 -4.09919 1.94072
              CHANNELS 6 Xposition Yposition Zposition Zrotation Xrotation Yrotation
              JOINT Bip01_L_UpperArm
              {
                OFFSET 6.62478 0 0
                CHANNELS 6 Xposition Yposition Zposition Zrotation Xrotation Yrotation
                JOINT Bip01_L_Forearm
                {
                  OFFSET 7.46098 0 0
                  CHANNELS 6 Xposition Yposition Zposition Zrotation Xrotation Yrotation
                  JOINT Bip01_L_Hand
                  {
                    OFFSET 7.80543 0 0
                    CHANNELS 6 Xposition Yposition Zposition Zrotation Xrotation Yrotation
                    JOINT Bip01_L_Finger0
                    {
                      OFFSET 2.2294 0.674378 -0.135623
                      CHANNELS 6 Xposition Yposition Zposition Zrotation Xrotation Yrotation
                      JOINT Bip01_L_Finger0Nub
                      {
                        OFFSET 3.57153 0 0
                        CHANNELS 6 Xposition Yposition Zposition Zrotation Xrotation Yrotation
                        End Site
                        {
                          OFFSET 0 0 0
                        }
                      }
                    }
                  }
                }
              }
            }
            JOINT Bip01_Neck1
            {
              OFFSET 3.78076 -0.00285482 1.52588e-005
              CHANNELS 6 Xposition Yposition Zposition Zrotation Xrotation Yrotation
              JOINT Bip01_Head
              {
                OFFSET 3.62738 0 0
                CHANNELS 6 Xposition Yposition Zposition Zrotation Xrotation Yrotation
                JOINT BN_Beard_L
                {
                  OFFSET 6.36381 2.6665 1.018
                  CHANNELS 6 Xposition Yposition Zposition Zrotation Xrotation Yrotation
                  End Site
                  {
                    OFFSET 0 0 0
                  }
                }
                JOINT BN_Beard_R
                {
                  OFFSET 6.3638 2.6665 -1.01806
                  CHANNELS 6 Xposition Yposition Zposition Zrotation Xrotation Yrotation
                  End Site
                  {
                    OFFSET 0 0 0
                  }
                }
                JOINT BN_Mouth
                {
                  OFFSET 0.165208 0.881832 -2.79663e-005
                  CHANNELS 6 Xposition Yposition Zposition Zrotation Xrotation Yrotation
                  JOINT BN_Thouge_01
                  {
                    OFFSET 4.3022 0.00850105 0
                    CHANNELS 6 Xposition Yposition Zposition Zrotation Xrotation Yrotation
                    JOINT BN_Thouge_02
                    {
                      OFFSET 1.50253 0 0
                      CHANNELS 6 Xposition Yposition Zposition Zrotation Xrotation Yrotation
                      End Site
                      {
                        OFFSET 0 0 0
                      }
                    }
                  }
                }
                JOINT BN_Ear_L
                {
                  OFFSET 1.27954 -1.37165 2.10918
                  CHANNELS 6 Xposition Yposition Zposition Zrotation Xrotation Yrotation
                  End Site
                  {
                    OFFSET 0 0 0
                  }
                }
                JOINT BN_Ear_R
                {
                  OFFSET 1.27953 -1.37164 -2.1093
                  CHANNELS 6 Xposition Yposition Zposition Zrotation Xrotation Yrotation
                  End Site
                  {
                    OFFSET 0 0 0
                  }
                }
                JOINT Bip01_HeadNub
                {
                  OFFSET 7.94507 0 0
                  CHANNELS 6 Xposition Yposition Zposition Zrotation Xrotation Yrotation
                  End Site
                  {
                    OFFSET 0 0 0
                  }
                }
              }
            }
          }
        }
      }
    }
  }
}
MOTION
Frames:	4
Frame Time:	0.0333333
-8.32805 4.85929 0 95.7148 -89.9999 102.795 0 -9.09495e-013 0 -90 2.17592 -87.4554 -1.24088 -0.718302 2.5332e-006 38.6086 12.2698 108.124 6.82381 -1.77636e-015 3.33786e-006 -57.9353 -29.0402 -122.579 8.76082 5.00679e-006 2.86102e-006 2.03899 22.7868 -43.8301 7.66999 5.96047e-008 0 -38.5419 -24.094 6.58382 1.33942 0.0444269 0.0595427 -2.94197 -0.0999394 -0.441494 -1.35462 -0.108752 -2.49335 -106.888 -10.6361 167.57 8.39601 0 2.38419e-007 -143.175 -1.30828e-005 8.69167e-007 9.35807 4.76837e-007 2.38419e-007 153.652 1.78044e-005 4.34443e-007 4.2782 -2.38419e-007 2.38419e-007 -114.295 -10.0069 -14.6543 1.32445 2.68719 0 90 -1.7294e-005 -1.00482e-005 0.282265 -8.51288e-010 4.44089e-016 -1.23708e-008 -1.11798e-008 9.79322e-009 -1.31697 -0.11727 2.39445 -103.357 15.0366 -166.043 8.39601 8.88179e-016 -8.88178e-016 -139.418 -7.93771e-006 6.7733e-006 9.35808 8.88179e-016 0 158.733 -4.97152e-006 -1.35314e-005 4.27819 -2.38419e-007 -2.38419e-007 -119.512 7.1576 15.4564 1.32445 2.68719 4.44089e-016 89.0865 0.054853 -0.00374904 0.282265 7.45059e-009 -2.38419e-007 -180 -1.99755e-006 -9.24423e-008 4.78009 -0.00552654 1.2666e-005 22.7922 -0.129296 -0.732521 7.53427 -0.00374126 8.63448e-005 48.5897 -0.866659 -0.152497 8.17902 0.438047 -1.77622e-005 -64.366 0.324065 -0.0171516 -0.248732 -4.58593 -2.17214 -116.778 -74.743 134.08 6.62478 4.76837e-007 -1.90735e-006 84.9697 -3.97048 -109.662 7.46098 -1.77636e-015 -2.38419e-006 -45.3926 1.24697e-006 1.55433e-005 7.80543 -2.38419e-007 1.19209e-007 8.67781 -3.25576 -5.29476 2.2294 0.674378 0.135621 -82.9646 -8.34927 6.11083 3.57154 -2.22045e-016 -1.19209e-007 -180 -1.00151e-005 -9.8993e-008 -0.247406 -4.56107 2.22406 -114.45 76.3183 -136.69 6.62478 -8.88179e-016 0 74.7016 0.494821 104.709 7.46099 8.88179e-016 -1.19209e-007 -43.4328 2.84769e-005 2.67165e-005 7.80544 0 -2.22045e-016 8.89539 -14.7056 -1.66883 2.2294 0.674378 -0.135623 -85.9501 3.17474 -5.6952 3.57153 0 8.9407e-008 8.55471e-009 -1.14014e-007 1.58682e-007 3.78079 -0.00284997 7.61449e-006 9.41869 -0.14824 0.0582541 3.62738 4.44089e-016 -2.77556e-017 78.8429 -0.541861 0.0170637 6.3638 2.6665 1.018 67.6959 -24.2284 -107.439 6.36379 2.6665 -1.01806 -109.244 -29.2966 77.2778 0.165206 0.881834 -2.79248e-005 -152.666 7.01671e-015 -180 4.30221 0.00849915 -2.98023e-008 15.0149 -2.55065e-005 -1.10729e-005 1.50253 1.90735e-006 -2.98023e-008 11.687 -6.6014e-006 1.15955e-005 1.27954 -1.37165 2.10918 -131.38 -55.0077 -66.9283 1.27953 -1.37165 -2.1093 45.4499 -52.0292 117.434 7.94507 -5.72205e-006 2.98023e-008 -3.34797e-007 -4.53811e-012 3.52787e-013 
-8.38939 4.83481 -1.34423e-009 95.1356 -89.9999 101.668 0 -9.09495e-013 0 -89.9835 1.70563 -87.676 -1.24088 -0.718302 2.5332e-006 38.6086 12.2699 108.124 6.82381 1.77636e-015 3.33786e-006 -57.9287 -29.0335 -122.572 8.76082 5.00679e-006 2.86102e-006 2.03602 22.7946 -43.8207 7.66999 5.96047e-008 1.77636e-015 -38.4429 -23.9991 6.55265 1.33942 0.0444269 0.0595427 -3.40669 -0.108554 -0.221025 -1.35462 -0.108752 -2.49335 -106.706 -10.6377 167.564 8.39601 -1.77636e-015 2.38419e-007 -142.832 -9.6794e-006 5.42927e-006 9.35807 4.76837e-007 2.38419e-007 153.489 1.99672e-005 -3.85295e-006 4.2782 -2.38419e-007 2.38419e-007 -114.826 -9.90924 -14.7185 1.32445 2.68719 1.85834e-011 90 -1.72939e-005 -1.00486e-005 0.282265 -8.51288e-010 -1.77636e-015 -1.23708e-008 -1.11798e-008 9.79322e-009 -1.31697 -0.11727 2.39445 -103.35 15.0345 -166.04 8.39601 -8.88179e-016 2.66454e-015 -139.191 -8.52886e-006 6.08891e-006 9.35808 -3.55272e-015 -8.88178e-016 158.516 -7.43826e-006 -7.15273e-006 4.27819 -2.38419e-007 -2.38419e-007 -120.042 7.02041 15.5509 1.32445 2.68719 8.88178e-016 89.0865 0.054853 -0.00374904 0.282265 7.45059e-009 -2.38419e-007 -180 -1.99755e-006 -1.01104e-005 4.78009 -0.00552654 1.2666e-005 23.8723 -0.29195 -0.687945 7.53427 -0.00374126 8.63448e-005 48.6573 -1.34589 -0.654146 8.17902 0.438047 -1.77625e-005 -59.5596 -0.0586054 -0.0935013 -0.248732 -4.58593 -2.17214 -120.476 -74.9815 135.645 6.62478 4.76837e-007 -1.90735e-006 83.1501 -1.55711 -107.777 7.46098 4.70735e-014 -2.38419e-006 -53.7487 2.11535e-005 -1.40029e-007 7.80543 -2.38419e-007 1.19209e-007 15.0681 -0.162807 -6.04555 2.2294 0.674378 0.135621 -63.8868 -1.69125 6.33242 3.57154 9.32588e-015 -1.19209e-007 -180 -1.00151e-005 -9.89902e-008 -0.247406 -4.56107 2.22406 -120.498 76.086 -136.103 6.62478 -1.77636e-015 -3.55271e-015 74.5384 1.57213 104.324 7.46099 1.77636e-015 -1.19209e-007 -45.0584 2.7448e-005 2.78645e-005 7.80544 -5.77316e-015 -8.88179e-016 7.69539 -14.6796 -2.31597 2.2294 0.674378 -0.135623 -84.9404 3.07371 -5.75023 3.57153 -6.43931e-015 8.9407e-008 8.55471e-009 -1.14014e-007 1.58682e-007 3.78079 -0.00284997 7.6145e-006 4.15738 -0.312648 0.380624 3.62738 -3.10862e-015 2.77556e-016 78.5753 0.447215 -0.503205 6.3638 2.6665 1.018 67.6613 -23.9761 -108.217 6.36379 2.6665 -1.01806 -109.288 -29.127 76.7499 0.165206 0.881834 -2.79248e-005 -152.79 0.000244141 180 4.30221 0.00849915 -2.97998e-008 15.0934 -2.89751e-005 -1.01084e-005 1.50253 1.90735e-006 -2.98023e-008 10.7263 -3.93599e-006 1.00855e-006 1.27954 -1.37165 2.10918 -131.824 -54.8841 -66.8923 1.27953 -1.37165 -2.1093 44.8068 -52.0335 117.486 7.94507 -5.72205e-006 2.98023e-008 -3.34797e-007 -4.53845e-012 3.52793e-013 
-8.4539 4.80907 -2.75796e-009 89.9322 -89.9999 95.8899 0 -9.09495e-013 0 -89.9684 1.21148 -87.9089 -1.24088 -0.718302 2.5332e-006 38.6086 12.2698 108.124 6.82381 1.77636e-015 3.33786e-006 -57.9104 -29.0147 -122.551 8.76082 5.00679e-006 2.86102e-006 2.02753 22.8165 -43.7942 7.66999 5.96047e-008 -1.77636e-015 -38.1638 -23.732 6.46527 1.33942 0.0444269 0.0595427 -3.89508 -0.11949 0.0107371 -1.35462 -0.108752 -2.49335 -106.506 -10.6409 167.56 8.39601 -8.88178e-016 2.38419e-007 -142.466 -9.95457e-006 5.08687e-006 9.35807 4.76837e-007 2.38419e-007 153.322 1.56103e-005 4.90008e-006 4.2782 -2.38419e-007 2.38419e-007 -115.383 -9.8075 -14.7843 1.32445 2.68719 3.66218e-011 90 -1.72939e-005 -1.0049e-005 0.282265 -8.51286e-010 4.44089e-016 -1.23708e-008 -1.11798e-008 9.79322e-009 -1.31697 -0.11727 2.39445 -103.334 15.033 -166.038 8.39601 -2.66454e-015 8.88178e-016 -138.946 -1.4177e-005 -3.896e-007 9.35808 -3.55272e-015 -2.22045e-015 158.291 -7.95852e-006 -5.80437e-006 4.27819 -2.38419e-007 -2.38419e-007 -120.6 6.87707 15.6478 1.32445 2.68719 0 89.0865 0.054853 -0.00374904 0.282265 7.45059e-009 -2.38419e-007 -180 -1.99755e-006 -1.01104e-005 4.78009 -0.00552654 1.2666e-005 24.9992 -0.453526 -0.64252 7.53427 -0.00374126 8.63448e-005 48.6474 -1.82098 -1.15298 8.17902 0.438047 -1.77629e-005 -54.6185 -0.447701 -0.135444 -0.248732 -4.58593 -2.17214 -124.342 -75.2381 137.162 6.62478 4.76837e-007 -1.90735e-006 81.1788 0.817455 -105.722 7.46098 9.68115e-014 -2.38419e-006 -62.195 -3.005e-006 1.60725e-005 7.80543 -2.38419e-007 1.19209e-007 22.2765 2.65466 -7.31517 2.2294 0.674378 0.135621 -43.7367 4.53802 3.95499 3.57153 0 -1.19209e-007 -180 -1.00151e-005 -9.89732e-008 -0.247406 -4.56107 2.22406 -126.562 75.8239 -135.659 6.62478 1.77636e-015 -3.55271e-015 74.3968 2.57351 103.955 7.46099 0 -1.19209e-007 -46.4047 2.0623e-005 3.44528e-005 7.80544 3.10863e-015 -1.11022e-015 6.31314 -14.6292 -2.98125 2.2294 0.674378 -0.135623 -83.9172 2.97033 -5.80418 3.57153 3.33068e-015 8.9407e-008 8.55471e-009 -1.14014e-007 1.58682e-007 3.78079 -0.00284997 7.6145e-006 -1.83193 -0.476659 0.730647 3.62738 -1.77636e-015 3.33067e-016 78.4478 1.59296 -1.0753 6.3638 2.6665 1.018 67.6181 -23.2082 -110.205 6.36379 2.6665 -1.01806 -109.381 -28.6406 75.3985 0.165206 0.881834 -2.79248e-005 -153.095 -0.0067749 -179.998 4.30221 0.00849915 -2.97965e-008 15.3032 -2.80562e-005 -1.02657e-005 1.50253 1.90735e-006 -2.98023e-008 8.14901 2.00942e-006 1.99801e-006 1.27954 -1.37165 2.10918 -132.953 -54.5888 -66.7971 1.27953 -1.37165 -2.1093 43.1308 -52.0538 117.585 7.94507 -5.72205e-006 2.98023e-008 -3.34797e-007 -4.53686e-012 3.52743e-013 
-8.522 4.78189 -4.25027e-009 90.5101 -89.9999 95.8606 0 -9.09495e-013 0 -89.9546 0.689559 -88.1539 -1.24088 -0.718302 2.5332e-006 38.6086 12.2699 108.124 6.82381 1.77636e-015 3.33786e-006 -57.8805 -28.984 -122.518 8.76082 5.00679e-006 2.86102e-006 2.01348 22.8521 -43.7512 7.66999 5.96047e-008 1.77636e-015 -37.7074 -23.2969 6.32375 1.33942 0.0444269 0.0595427 -4.41122 -0.133187 0.255278 -1.35462 -0.108752 -2.49335 -106.284 -10.6446 167.556 8.39601 -4.44089e-015 2.38419e-007 -142.074 -1.52974e-005 -1.74776e-006 9.35807 4.76837e-007 2.38419e-007 153.148 1.72287e-005 1.72385e-006 4.2782 -2.38419e-007 2.38419e-007 -115.972 -9.7012 -14.8518 1.32445 2.68719 5.56808e-011 90 -1.72938e-005 -1.00494e-005 0.282265 -8.51287e-010 -1.33227e-015 -1.23708e-008 -1.11798e-008 9.79322e-009 -1.31697 -0.11727 2.39445 -103.307 15.0319 -166.037 8.39601 -1.77636e-015 1.77636e-015 -138.68 -1.41786e-005 -3.23922e-007 9.35808 8.88179e-016 -2.22045e-015 158.056 -5.97896e-006 -1.06911e-005 4.27819 -2.38419e-007 -2.38419e-007 -121.187 6.72688 15.7474 1.32445 2.68719 1.77636e-015 89.0865 0.054853 -0.00374904 0.282265 7.45059e-009 -2.38419e-007 -180 -1.99755e-006 -1.01104e-005 4.78009 -0.00552654 1.2666e-005 26.0978 -0.613519 -0.59308 7.53427 -0.00374126 8.63448e-005 48.6699 -2.29628 -1.65075 8.17902 0.438047 -1.77632e-005 -49.7676 -0.836516 -0.145046 -0.248732 -4.58593 -2.17214 -128.175 -75.5124 138.624 6.62478 4.76837e-007 -1.90735e-006 79.2805 3.1283 -103.599 7.46098 1.49214e-013 -2.38419e-006 -70.5571 1.4827e-006 1.34319e-005 7.80543 -2.38419e-007 1.19209e-007 29.1505 5.37843 -8.83397 2.2294 0.674378 0.135621 -23.7219 9.67372 -0.235918 3.57153 8.88179e-016 -1.19209e-007 -180 -1.00151e-005 -9.89897e-008 -0.247406 -4.56107 2.22406 -132.393 75.5351 -135.393 6.62478 3.55271e-015 0 74.2866 3.46045 103.596 7.46099 -1.77636e-015 -1.19209e-007 -47.5128 4.01982e-005 1.638e-005 7.80544 2.22045e-015 -1.33227e-015 4.78818 -14.5521 -3.66483 2.2294 0.674378 -0.135623 -82.8631 2.86282 -5.85781 3.57153 -5.32908e-015 8.9407e-008 8.55471e-009 -1.14014e-007 1.58682e-007 3.78079 -0.00284997 7.6145e-006 -7.42903 -0.687894 1.03803 3.62738 -2.22045e-015 -2.22045e-016 78.2839 2.74488 -1.6115 6.3638 2.6665 1.018 67.6898 -21.7972 -113.018 6.36379 2.6665 -1.01806 -109.46 -27.8115 73.4702 0.165206 0.881834 -2.79248e-005 -153.505 1.52588e-005 -180 4.30221 0.00849915 -2.97943e-008 15.6238 -3.12618e-005 -9.22885e-006 1.50253 1.90735e-006 -2.98023e-008 4.18881 -9.92708e-007 2.99879e-006 1.27954 -1.37165 2.10918 -134.566 -54.208 -66.6529 1.27953 -1.37165 -2.1093 40.6554 -52.1033 117.658 7.94507 -5.72205e-006 2.98023e-008 -3.34797e-007 -4.53706e-012 3.52694e-013 
